<?xml version="1.0" encoding="UTF-8"?>
<svg width="204px" height="322px" viewBox="0 0 204 322" version="1.1" xmlns="http://www.w3.org/2000/svg" xmlns:xlink="http://www.w3.org/1999/xlink">
    <!-- Generator: Sketch 53.1 (72631) - https://sketchapp.com -->
    <title>Man</title>
    <desc>Created with Sketch.</desc>
    <defs>
        <linearGradient x1="50%" y1="0%" x2="50%" y2="100%" id="linearGradient-1">
            <stop stop-color="#49C4A1" offset="0%"></stop>
            <stop stop-color="#379479" offset="100%"></stop>
        </linearGradient>
        <linearGradient x1="50%" y1="0%" x2="50%" y2="100%" id="linearGradient-2">
            <stop stop-color="#E2E2E2" offset="0%"></stop>
            <stop stop-color="#C1C1C1" offset="100%"></stop>
        </linearGradient>
        <linearGradient x1="50%" y1="0%" x2="50%" y2="100%" id="linearGradient-3">
            <stop stop-color="#E2E2E2" offset="0%"></stop>
            <stop stop-color="#C1C1C1" offset="100%"></stop>
        </linearGradient>
    </defs>
    <g id="Page-1" stroke="none" stroke-width="1" fill="none" fill-rule="evenodd">
        <g id="Man-Working" transform="translate(-83.000000, -120.000000)">
            <g id="Man" transform="translate(83.000000, 120.000000)">
                <g transform="translate(14.000000, 0.000000)">
                    <path d="M71.8896,38.2344 C71.3996,56.8324 66.9346,55.4024 59.6326,55.9584 L54.5706,67.4524 L37.8496,60.0804 C37.8496,60.0804 43.1126,48.9724 42.1686,37.2204 C41.3706,27.2814 51.8406,19.5054 59.7356,19.9294 C69.6056,20.4604 72.1526,28.2644 71.8896,38.2344" id="Face" fill="#CFA68C"></path>
                    <path d="M68.3975,177.1973 C68.3975,177.1973 68.6445,179.6463 74.1225,181.5663 C79.5975,183.4873 136.2165,187.4823 146.6185,194.0003 C165.1885,205.6383 132.3905,298.5563 130.2735,302.6863 C128.1615,306.8143 132.5585,314.2483 148.8765,314.8363 C150.3585,314.8893 152.6405,317.3773 149.0455,317.7223 C145.4485,318.0713 111.6615,318.9833 111.6615,318.9833 C111.6615,318.9833 110.8945,319.7983 111.5525,312.4483 C112.2055,305.0983 116.8665,288.2583 116.8665,288.2583 C116.8665,288.2583 120.7905,271.3953 123.8775,253.2983 C125.9945,240.8973 116.5695,224.8133 108.1315,225.3363 C60.7655,228.2623 32.5345,223.9423 32.5345,223.9423 C32.5345,223.9423 2.1945,223.7173 4.4515,196.1973 L8.1945,175.3073 L68.3975,177.1973 Z" id="Right-Leg" fill="#131D2E"></path>
                    <path d="M67.6553,173.9795 C67.6553,173.9795 66.9403,177.5845 72.3503,179.6895 C77.7583,181.7915 137.4703,184.5405 143.0053,195.4975 C148.5223,206.4275 145.4083,211.7195 143.0053,221.6365 C140.6023,231.5515 109.0043,298.9685 106.7523,303.0255 C104.4993,307.0805 108.6453,314.6585 124.9313,315.7935 C126.4123,315.8965 128.6113,318.4595 125.0053,318.6845 C121.3993,318.9125 87.5963,318.6845 87.5963,318.6845 C87.5963,318.6845 86.8073,319.4745 87.7103,312.1525 C88.6123,304.8265 93.8343,288.1515 93.8343,288.1515 C93.8343,288.1515 98.3253,271.4335 102.0213,253.4495 C104.5523,241.1255 111.9363,225.2825 103.4863,225.5205 C56.0503,226.8515 28.7873,226.5605 28.7873,226.5605 C28.7873,226.5605 -1.5617,224.4575 0.8443,192.9095 L3.4383,171.7675 L67.6553,173.9795 Z" id="Left-Leg" fill="#131D2E"></path>
                    <path d="M140.0527,157.1328 C139.2397,156.0858 138.2197,153.3788 137.5737,152.3988 C137.1947,151.8238 136.8737,151.3248 136.6687,151.0128 C136.6567,150.9988 136.6507,150.9838 136.6507,150.9838 C136.5237,150.7938 135.9707,149.8758 135.9567,149.8298 C135.9387,149.8948 135.6587,150.3038 134.7027,150.7278 C133.6887,151.1778 131.8797,151.6178 128.8057,151.6158 C127.5097,151.6188 125.4497,149.0678 124.5437,148.1428 C123.5847,147.1418 118.8107,145.7678 117.1527,146.7698 L116.5527,136.6748 C116.5527,136.6748 125.9357,137.1528 130.4207,137.7328 C133.5607,138.1458 135.8377,142.3708 137.5827,146.1688 C138.3247,147.8078 138.9787,149.3718 139.5607,150.4968 C141.4797,154.2318 141.3697,154.5348 142.1437,157.6198 C142.2767,158.1388 141.7477,159.3218 140.0527,157.1328" id="Hand" fill="#CFA68C"></path>
                    <path d="M50.6357,28.1729 C55.2377,23.7619 62.0387,24.7719 65.4897,23.1489 C77.1987,17.6309 74.3377,5.6339 67.7387,1.6539 C67.7387,1.6539 64.1477,-1.1511 59.3487,1.1939 C59.3487,1.1939 62.4867,2.1359 63.1247,2.9779 C63.7627,3.8189 59.8287,1.7559 56.7957,4.3959 C56.7957,4.3959 64.3617,6.7859 60.3037,7.8219 C60.3037,7.8219 30.9017,14.2079 32.5087,23.7329 C34.1167,33.2569 39.9427,44.5259 43.2857,46.5089 C46.6277,48.4939 45.5867,45.6409 45.1467,45.1969 C44.7057,44.7499 41.2997,39.8959 42.7897,38.9449 C44.2857,37.9949 46.2977,39.4839 47.2777,39.9869 C48.2517,40.4909 49.4057,41.2139 49.8937,39.3799 C50.3807,37.5469 49.3787,29.3749 50.6357,28.1729" id="Hair" fill="#131D2E"></path>
                    <path d="M39.4541,58.3877 C39.4541,58.3877 37.2891,52.3017 21.9651,75.5787 C6.6401,98.8577 2.1941,181.5667 2.1941,181.5667 C2.1941,181.5667 33.4381,176.5977 67.6551,173.9797 L65.9811,123.6827 C65.9811,123.6827 89.2581,140.3117 118.6921,147.5417 C118.6921,147.5417 118.4091,139.3357 120.4351,137.0827 C122.4641,134.8277 80.2811,117.1797 68.0151,96.2247 C65.2441,91.4927 61.8911,90.6357 57.0821,63.5047 C56.2821,58.9867 49.2591,66.2027 39.4541,58.3877" id="Shirt" fill="url(#linearGradient-1)"></path>
                    <path d="M65.9814,123.6826 C65.9814,123.6826 44.6244,95.8866 43.9464,94.5316 C43.2684,93.1756 51.7444,138.5196 65.9814,147.5416 L66.7974,148.2026 L65.9814,123.6826 Z" id="Shadow" fill="#2B735E"></path>
                </g>
                <g id="Man-Laptop" transform="translate(131.000000, 104.000000)">
                    <path d="M52.4062,52.5088 C52.2272,53.2948 52.7182,54.0868 53.5072,54.2688 L54.7592,54.5548 C55.5442,54.7378 56.3372,54.2428 56.5162,53.4568 L68.2172,2.6848 C68.3992,1.9008 67.9022,1.1068 67.1152,0.9258 L65.8642,0.6378 C65.0802,0.4558 64.2862,0.9518 64.1062,1.7378 L52.4062,52.5088 Z" id="Fill-4" fill="url(#linearGradient-2)"></path>
                    <path d="M54.4873,56.0459 C55.2963,56.0429 55.9553,55.3789 55.9503,54.5719 L55.9463,53.2889 C55.9423,52.4809 55.2823,51.8229 54.4743,51.8249 L2.3743,52.0119 C1.5653,52.0139 0.9093,52.6759 0.9133,53.4839 L0.9173,54.7689 C0.9203,55.5749 1.5803,56.2339 2.3853,56.2329 L54.4873,56.0459 Z" id="Fill-630" fill="url(#linearGradient-3)"></path>
                </g>
                <g id="Chair-Left" transform="translate(0.000000, 67.000000)" fill="#4A4A4A">
                    <path d="M112.2979,247.6904 C112.2979,251.0594 109.5679,253.7914 106.1949,253.7914 C102.8259,253.7914 100.0959,251.0594 100.0959,247.6904 C100.0959,244.3194 102.8259,241.5874 106.1949,241.5874 C109.5679,241.5874 112.2979,244.3194 112.2979,247.6904" id="Fill-620"></path>
                    <path d="M39.0762,247.6904 C39.0762,251.0594 36.3472,253.7914 32.9742,253.7914 C29.6042,253.7914 26.8742,251.0594 26.8742,247.6904 C26.8742,244.3194 29.6042,241.5874 32.9742,241.5874 C36.3472,241.5874 39.0762,244.3194 39.0762,247.6904" id="Fill-622"></path>
                    <path d="M112.0068,237.2207 C111.1398,233.4517 74.5008,227.7257 74.5008,227.7257 L74.5008,190.1177 L62.5008,190.1177 L62.5008,228.6117 C62.5008,228.6117 33.3898,230.6137 26.1438,237.9907 C24.1278,240.0467 26.9708,251.0517 29.1378,249.1557 C47.0778,233.4517 68.9018,238.3247 68.9018,238.3247 C68.9018,238.3247 82.4188,234.6817 109.1568,248.3917 C111.7218,249.7057 112.6518,240.0287 112.0068,237.2207" id="Fill-624"></path>
                    <path d="M123.3682,156.7168 C74.2182,156.7168 46.5342,156.9428 28.1162,149.9368 C0.8622,139.5698 39.5042,26.6738 16.3842,3.5538 C10.9892,-1.8392 0.0262,0.6418 0.6592,8.2408 C6.7602,81.4608 4.8392,100.9238 0.4342,148.8068 C-2.2778,178.2778 18.3302,157.6198 123.3682,166.2058 C125.7362,166.4008 125.7432,156.7168 123.3682,156.7168" id="Fill-626"></path>
                    <path d="M66.083,194.9912 C65.358,192.5222 65.69,190.3202 65.958,188.5522 C66.157,187.2262 66.331,186.0832 66.059,185.0572 C65.907,184.4912 65.409,183.9932 64.61,183.2292 C63.323,181.9982 61.377,180.1382 61.51,176.8612 C61.606,174.4402 63.407,173.1672 64.483,172.4052 C65.482,171.6982 65.644,171.5312 65.62,171.1882 C65.497,171.0072 65.264,170.7172 65.083,170.4942 C63.522,168.5472 59.378,163.3782 66.911,156.8632 L70.452,160.9582 C66.864,164.0602 67.731,165.1422 69.306,167.1052 C70.015,167.9892 70.747,168.9022 70.938,170.1072 C71.558,174.0312 68.989,175.8482 67.609,176.8252 C67.396,176.9752 67.102,177.1842 66.923,177.3372 C66.973,177.9302 67.324,178.3332 68.352,179.3162 C69.417,180.3342 70.742,181.6012 71.291,183.6712 C71.851,185.7772 71.563,187.6802 71.311,189.3582 C71.085,190.8542 70.892,192.1472 71.278,193.4682 L66.083,194.9912 Z" id="Fill-628"></path>
                </g>
                <path d="M203.0098,159.5713 C204.2128,159.5503 204.2128,164.3953 203.0098,164.3833 C174.1328,164.0833 162.7038,164.3833 162.7038,164.3833 C162.7038,164.3833 157.8918,251.3103 170.2248,320.2903 C170.4348,321.4743 149.9448,321.3723 150.1728,320.1903 C162.9928,253.1473 157.8918,164.3833 157.8918,164.3833 C157.8918,164.3833 144.6568,163.9333 116.9848,164.3833 C115.7818,164.4033 115.7818,159.5513 116.9848,159.5713 C151.4248,160.1663 167.5168,160.2323 203.0098,159.5713" id="Man-Table" fill="#B4B4B4"></path>
            </g>
        </g>
    </g>
</svg>